<mxfile host="app.diagrams.net" modified="2023-07-13T03:40:29.337Z" agent="Mozilla/5.0 (Windows NT 10.0; Win64; x64) AppleWebKit/537.36 (KHTML, like Gecko) Chrome/114.0.0.0 Safari/537.36" etag="CWYmjnRsEGyCY6eQIZFR" version="21.6.2" type="github" pages="2">
  <diagram name="ERD" id="bLf5Gnh5erqJ0THzdqtq">
    <mxGraphModel dx="1387" dy="711" grid="1" gridSize="10" guides="1" tooltips="1" connect="1" arrows="1" fold="1" page="1" pageScale="1" pageWidth="827" pageHeight="1169" math="0" shadow="0">
      <root>
        <mxCell id="0" />
        <mxCell id="1" parent="0" />
        <mxCell id="k9TsYi5H-A5N4quMduwp-1" value="&lt;b&gt;KHÁCH HÀNG&lt;/b&gt;" style="rounded=0;whiteSpace=wrap;html=1;" parent="1" vertex="1">
          <mxGeometry x="190" y="200" width="120" height="60" as="geometry" />
        </mxCell>
        <mxCell id="k9TsYi5H-A5N4quMduwp-2" value="&lt;b&gt;PHIM&lt;/b&gt;" style="rounded=0;whiteSpace=wrap;html=1;" parent="1" vertex="1">
          <mxGeometry x="600" y="200" width="120" height="60" as="geometry" />
        </mxCell>
        <mxCell id="k9TsYi5H-A5N4quMduwp-3" value="&lt;b&gt;PHÒNG CHIẾU&lt;/b&gt;" style="rounded=0;whiteSpace=wrap;html=1;" parent="1" vertex="1">
          <mxGeometry x="600" y="475" width="120" height="60" as="geometry" />
        </mxCell>
        <mxCell id="k9TsYi5H-A5N4quMduwp-4" value="&lt;b&gt;ADMIN&lt;/b&gt;" style="rounded=0;whiteSpace=wrap;html=1;" parent="1" vertex="1">
          <mxGeometry x="600" y="842" width="120" height="60" as="geometry" />
        </mxCell>
        <mxCell id="k9TsYi5H-A5N4quMduwp-5" value="&lt;b&gt;XEM&lt;/b&gt;" style="rhombus;whiteSpace=wrap;html=1;" parent="1" vertex="1">
          <mxGeometry x="370" y="190" width="140" height="80" as="geometry" />
        </mxCell>
        <mxCell id="k9TsYi5H-A5N4quMduwp-6" value="&lt;b&gt;CHIẾU&lt;/b&gt;" style="rhombus;whiteSpace=wrap;html=1;" parent="1" vertex="1">
          <mxGeometry x="590" y="319" width="140" height="80" as="geometry" />
        </mxCell>
        <mxCell id="k9TsYi5H-A5N4quMduwp-7" value="&lt;b&gt;CÓ&lt;/b&gt;" style="rhombus;whiteSpace=wrap;html=1;" parent="1" vertex="1">
          <mxGeometry x="180" y="390" width="140" height="80" as="geometry" />
        </mxCell>
        <mxCell id="k9TsYi5H-A5N4quMduwp-9" value="&lt;b&gt;TÀI KHOẢN&lt;/b&gt;" style="rounded=0;whiteSpace=wrap;html=1;" parent="1" vertex="1">
          <mxGeometry x="190" y="545" width="120" height="60" as="geometry" />
        </mxCell>
        <mxCell id="MCglpq_lhRXfIu_TLcl6-2" value="&lt;b&gt;QUẢN LÍ&lt;/b&gt;" style="rhombus;whiteSpace=wrap;html=1;" vertex="1" parent="1">
          <mxGeometry x="590" y="677" width="140" height="80" as="geometry" />
        </mxCell>
        <mxCell id="MCglpq_lhRXfIu_TLcl6-3" value="&lt;b&gt;TÊN&lt;/b&gt;" style="ellipse;whiteSpace=wrap;html=1;" vertex="1" parent="1">
          <mxGeometry x="70" y="140" width="60" height="40" as="geometry" />
        </mxCell>
        <mxCell id="MCglpq_lhRXfIu_TLcl6-4" value="&lt;b&gt;TUỔI&lt;/b&gt;" style="ellipse;whiteSpace=wrap;html=1;" vertex="1" parent="1">
          <mxGeometry x="140" y="110" width="60" height="40" as="geometry" />
        </mxCell>
        <mxCell id="MCglpq_lhRXfIu_TLcl6-5" value="&lt;b&gt;ĐỊA CHỈ&lt;/b&gt;" style="ellipse;whiteSpace=wrap;html=1;" vertex="1" parent="1">
          <mxGeometry x="210" y="110" width="60" height="40" as="geometry" />
        </mxCell>
        <mxCell id="MCglpq_lhRXfIu_TLcl6-6" value="&lt;b&gt;EMAIL&lt;/b&gt;" style="ellipse;whiteSpace=wrap;html=1;" vertex="1" parent="1">
          <mxGeometry x="40" y="190" width="60" height="40" as="geometry" />
        </mxCell>
        <mxCell id="MCglpq_lhRXfIu_TLcl6-7" value="&lt;b&gt;SĐT&lt;/b&gt;" style="ellipse;whiteSpace=wrap;html=1;" vertex="1" parent="1">
          <mxGeometry x="40" y="240" width="60" height="40" as="geometry" />
        </mxCell>
        <mxCell id="MCglpq_lhRXfIu_TLcl6-8" value="&lt;b&gt;ĐIỂM TÍCH&lt;/b&gt;" style="ellipse;whiteSpace=wrap;html=1;" vertex="1" parent="1">
          <mxGeometry x="70" y="290" width="60" height="40" as="geometry" />
        </mxCell>
        <mxCell id="MCglpq_lhRXfIu_TLcl6-9" value="&lt;b&gt;&lt;u&gt;MÃ KHÁCH HÀNG&lt;/u&gt;&lt;/b&gt;" style="ellipse;whiteSpace=wrap;html=1;" vertex="1" parent="1">
          <mxGeometry x="130" y="319" width="60" height="40" as="geometry" />
        </mxCell>
        <mxCell id="MCglpq_lhRXfIu_TLcl6-10" value="&lt;b&gt;&lt;u&gt;MÃ PHIM&lt;/u&gt;&lt;/b&gt;" style="ellipse;whiteSpace=wrap;html=1;" vertex="1" parent="1">
          <mxGeometry x="530" y="150" width="60" height="40" as="geometry" />
        </mxCell>
        <mxCell id="MCglpq_lhRXfIu_TLcl6-11" value="&lt;b&gt;THỂ LOẠI&lt;/b&gt;" style="ellipse;whiteSpace=wrap;html=1;" vertex="1" parent="1">
          <mxGeometry x="590" y="100" width="60" height="40" as="geometry" />
        </mxCell>
        <mxCell id="MCglpq_lhRXfIu_TLcl6-12" value="&lt;b&gt;NHÀ SẢN XUẤT&lt;/b&gt;" style="ellipse;whiteSpace=wrap;html=1;" vertex="1" parent="1">
          <mxGeometry x="660" y="90" width="60" height="40" as="geometry" />
        </mxCell>
        <mxCell id="MCglpq_lhRXfIu_TLcl6-13" value="&lt;b&gt;THỜI LƯỢNG&lt;/b&gt;" style="ellipse;whiteSpace=wrap;html=1;" vertex="1" parent="1">
          <mxGeometry x="730" y="100" width="60" height="40" as="geometry" />
        </mxCell>
        <mxCell id="MCglpq_lhRXfIu_TLcl6-14" value="&lt;b&gt;ĐỘ TUỔI CHO PHÉP&lt;/b&gt;" style="ellipse;whiteSpace=wrap;html=1;" vertex="1" parent="1">
          <mxGeometry x="750" y="160" width="80" height="40" as="geometry" />
        </mxCell>
        <mxCell id="MCglpq_lhRXfIu_TLcl6-15" value="&lt;b&gt;&lt;u&gt;MÃ PHÒNG&lt;/u&gt;&lt;/b&gt;" style="ellipse;whiteSpace=wrap;html=1;" vertex="1" parent="1">
          <mxGeometry x="767" y="495" width="60" height="40" as="geometry" />
        </mxCell>
        <mxCell id="MCglpq_lhRXfIu_TLcl6-16" value="&lt;b&gt;GIỜ CHIẾU&lt;/b&gt;" style="ellipse;whiteSpace=wrap;html=1;" vertex="1" parent="1">
          <mxGeometry x="720" y="425" width="60" height="40" as="geometry" />
        </mxCell>
        <mxCell id="MCglpq_lhRXfIu_TLcl6-17" value="&lt;b&gt;SỨC CHỨA&lt;/b&gt;" style="ellipse;whiteSpace=wrap;html=1;" vertex="1" parent="1">
          <mxGeometry x="720" y="565" width="60" height="40" as="geometry" />
        </mxCell>
        <mxCell id="MCglpq_lhRXfIu_TLcl6-19" value="&lt;b&gt;CÓ&lt;/b&gt;" style="rhombus;whiteSpace=wrap;html=1;" vertex="1" parent="1">
          <mxGeometry x="180" y="684" width="140" height="80" as="geometry" />
        </mxCell>
        <mxCell id="MCglpq_lhRXfIu_TLcl6-20" value="&lt;b&gt;&lt;u&gt;ID&lt;/u&gt;&lt;/b&gt;" style="ellipse;whiteSpace=wrap;html=1;" vertex="1" parent="1">
          <mxGeometry x="100" y="490" width="60" height="40" as="geometry" />
        </mxCell>
        <mxCell id="MCglpq_lhRXfIu_TLcl6-23" value="&lt;b&gt;TÊN TÀI KHOẢN&lt;/b&gt;" style="ellipse;whiteSpace=wrap;html=1;" vertex="1" parent="1">
          <mxGeometry x="100" y="550" width="60" height="40" as="geometry" />
        </mxCell>
        <mxCell id="MCglpq_lhRXfIu_TLcl6-24" value="&lt;b&gt;MẬT KHẨU&lt;/b&gt;" style="ellipse;whiteSpace=wrap;html=1;" vertex="1" parent="1">
          <mxGeometry x="100" y="610" width="60" height="40" as="geometry" />
        </mxCell>
        <mxCell id="MCglpq_lhRXfIu_TLcl6-25" value="&lt;b&gt;&lt;u&gt;MÃ ADMIN&lt;/u&gt;&lt;/b&gt;" style="ellipse;whiteSpace=wrap;html=1;" vertex="1" parent="1">
          <mxGeometry x="740" y="852" width="60" height="40" as="geometry" />
        </mxCell>
        <mxCell id="MCglpq_lhRXfIu_TLcl6-26" value="&lt;b&gt;EMAIL&lt;/b&gt;" style="ellipse;whiteSpace=wrap;html=1;" vertex="1" parent="1">
          <mxGeometry x="740" y="910" width="60" height="40" as="geometry" />
        </mxCell>
        <mxCell id="MCglpq_lhRXfIu_TLcl6-27" value="" style="endArrow=none;html=1;rounded=0;exitX=1;exitY=0.5;exitDx=0;exitDy=0;" edge="1" parent="1" source="k9TsYi5H-A5N4quMduwp-1" target="k9TsYi5H-A5N4quMduwp-5">
          <mxGeometry width="50" height="50" relative="1" as="geometry">
            <mxPoint x="460" y="420" as="sourcePoint" />
            <mxPoint x="510" y="370" as="targetPoint" />
          </mxGeometry>
        </mxCell>
        <mxCell id="MCglpq_lhRXfIu_TLcl6-28" value="" style="endArrow=none;html=1;rounded=0;exitX=1;exitY=0.5;exitDx=0;exitDy=0;entryX=0;entryY=0.5;entryDx=0;entryDy=0;" edge="1" parent="1" source="k9TsYi5H-A5N4quMduwp-5" target="k9TsYi5H-A5N4quMduwp-2">
          <mxGeometry width="50" height="50" relative="1" as="geometry">
            <mxPoint x="520" y="260" as="sourcePoint" />
            <mxPoint x="580" y="260" as="targetPoint" />
          </mxGeometry>
        </mxCell>
        <mxCell id="MCglpq_lhRXfIu_TLcl6-29" value="&lt;font style=&quot;font-size: 16px;&quot;&gt;n&lt;/font&gt;" style="text;html=1;strokeColor=none;fillColor=none;align=center;verticalAlign=middle;whiteSpace=wrap;rounded=0;" vertex="1" parent="1">
          <mxGeometry x="300" y="200" width="60" height="30" as="geometry" />
        </mxCell>
        <mxCell id="MCglpq_lhRXfIu_TLcl6-30" value="&lt;font style=&quot;font-size: 16px;&quot;&gt;n&lt;/font&gt;" style="text;html=1;strokeColor=none;fillColor=none;align=center;verticalAlign=middle;whiteSpace=wrap;rounded=0;" vertex="1" parent="1">
          <mxGeometry x="550" y="200" width="60" height="30" as="geometry" />
        </mxCell>
        <mxCell id="MCglpq_lhRXfIu_TLcl6-32" value="" style="endArrow=none;html=1;rounded=0;entryX=0.5;entryY=1;entryDx=0;entryDy=0;exitX=0.5;exitY=0;exitDx=0;exitDy=0;" edge="1" parent="1" source="k9TsYi5H-A5N4quMduwp-6" target="k9TsYi5H-A5N4quMduwp-2">
          <mxGeometry width="50" height="50" relative="1" as="geometry">
            <mxPoint x="460" y="410" as="sourcePoint" />
            <mxPoint x="510" y="360" as="targetPoint" />
          </mxGeometry>
        </mxCell>
        <mxCell id="MCglpq_lhRXfIu_TLcl6-33" value="" style="endArrow=none;html=1;rounded=0;entryX=0.5;entryY=1;entryDx=0;entryDy=0;exitX=0.5;exitY=0;exitDx=0;exitDy=0;" edge="1" parent="1" source="k9TsYi5H-A5N4quMduwp-3" target="k9TsYi5H-A5N4quMduwp-6">
          <mxGeometry width="50" height="50" relative="1" as="geometry">
            <mxPoint x="520" y="460" as="sourcePoint" />
            <mxPoint x="660" y="419" as="targetPoint" />
          </mxGeometry>
        </mxCell>
        <mxCell id="MCglpq_lhRXfIu_TLcl6-34" value="&lt;font style=&quot;font-size: 16px;&quot;&gt;n&lt;/font&gt;" style="text;html=1;strokeColor=none;fillColor=none;align=center;verticalAlign=middle;whiteSpace=wrap;rounded=0;" vertex="1" parent="1">
          <mxGeometry x="650" y="260" width="60" height="30" as="geometry" />
        </mxCell>
        <mxCell id="MCglpq_lhRXfIu_TLcl6-35" value="&lt;font style=&quot;font-size: 16px;&quot;&gt;n&lt;/font&gt;" style="text;html=1;strokeColor=none;fillColor=none;align=center;verticalAlign=middle;whiteSpace=wrap;rounded=0;" vertex="1" parent="1">
          <mxGeometry x="660" y="445" width="60" height="30" as="geometry" />
        </mxCell>
        <mxCell id="MCglpq_lhRXfIu_TLcl6-36" value="" style="endArrow=none;html=1;rounded=0;entryX=0.5;entryY=1;entryDx=0;entryDy=0;exitX=0.5;exitY=0;exitDx=0;exitDy=0;" edge="1" parent="1" source="MCglpq_lhRXfIu_TLcl6-2" target="k9TsYi5H-A5N4quMduwp-3">
          <mxGeometry width="50" height="50" relative="1" as="geometry">
            <mxPoint x="660" y="651" as="sourcePoint" />
            <mxPoint x="660" y="575" as="targetPoint" />
          </mxGeometry>
        </mxCell>
        <mxCell id="MCglpq_lhRXfIu_TLcl6-38" value="" style="endArrow=none;html=1;rounded=0;entryX=0.5;entryY=1;entryDx=0;entryDy=0;exitX=0.5;exitY=0;exitDx=0;exitDy=0;" edge="1" parent="1" source="k9TsYi5H-A5N4quMduwp-4" target="MCglpq_lhRXfIu_TLcl6-2">
          <mxGeometry width="50" height="50" relative="1" as="geometry">
            <mxPoint x="550" y="970" as="sourcePoint" />
            <mxPoint x="600" y="920" as="targetPoint" />
          </mxGeometry>
        </mxCell>
        <mxCell id="MCglpq_lhRXfIu_TLcl6-39" value="&lt;font style=&quot;font-size: 16px;&quot;&gt;n&lt;/font&gt;" style="text;html=1;strokeColor=none;fillColor=none;align=center;verticalAlign=middle;whiteSpace=wrap;rounded=0;" vertex="1" parent="1">
          <mxGeometry x="660" y="545" width="60" height="30" as="geometry" />
        </mxCell>
        <mxCell id="MCglpq_lhRXfIu_TLcl6-40" value="&lt;font style=&quot;font-size: 16px;&quot;&gt;1&lt;/font&gt;" style="text;html=1;strokeColor=none;fillColor=none;align=center;verticalAlign=middle;whiteSpace=wrap;rounded=0;" vertex="1" parent="1">
          <mxGeometry x="660" y="807" width="60" height="30" as="geometry" />
        </mxCell>
        <mxCell id="MCglpq_lhRXfIu_TLcl6-41" value="" style="endArrow=none;html=1;rounded=0;entryX=0.5;entryY=1;entryDx=0;entryDy=0;" edge="1" parent="1" target="k9TsYi5H-A5N4quMduwp-1">
          <mxGeometry width="50" height="50" relative="1" as="geometry">
            <mxPoint x="250" y="390" as="sourcePoint" />
            <mxPoint x="600" y="270" as="targetPoint" />
          </mxGeometry>
        </mxCell>
        <mxCell id="MCglpq_lhRXfIu_TLcl6-42" value="" style="endArrow=none;html=1;rounded=0;entryX=0.5;entryY=1;entryDx=0;entryDy=0;exitX=0.5;exitY=0;exitDx=0;exitDy=0;" edge="1" parent="1" source="k9TsYi5H-A5N4quMduwp-9" target="k9TsYi5H-A5N4quMduwp-7">
          <mxGeometry width="50" height="50" relative="1" as="geometry">
            <mxPoint x="550" y="560" as="sourcePoint" />
            <mxPoint x="600" y="510" as="targetPoint" />
          </mxGeometry>
        </mxCell>
        <mxCell id="MCglpq_lhRXfIu_TLcl6-43" value="" style="endArrow=none;html=1;rounded=0;entryX=0.5;entryY=1;entryDx=0;entryDy=0;exitX=0.5;exitY=0;exitDx=0;exitDy=0;" edge="1" parent="1" source="MCglpq_lhRXfIu_TLcl6-19" target="k9TsYi5H-A5N4quMduwp-9">
          <mxGeometry width="50" height="50" relative="1" as="geometry">
            <mxPoint x="550" y="560" as="sourcePoint" />
            <mxPoint x="600" y="510" as="targetPoint" />
          </mxGeometry>
        </mxCell>
        <mxCell id="MCglpq_lhRXfIu_TLcl6-44" value="&lt;font style=&quot;font-size: 16px;&quot;&gt;1&lt;/font&gt;" style="text;html=1;strokeColor=none;fillColor=none;align=center;verticalAlign=middle;whiteSpace=wrap;rounded=0;" vertex="1" parent="1">
          <mxGeometry x="200" y="515" width="60" height="30" as="geometry" />
        </mxCell>
        <mxCell id="MCglpq_lhRXfIu_TLcl6-45" value="&lt;font style=&quot;font-size: 16px;&quot;&gt;1&lt;/font&gt;" style="text;html=1;strokeColor=none;fillColor=none;align=center;verticalAlign=middle;whiteSpace=wrap;rounded=0;" vertex="1" parent="1">
          <mxGeometry x="200" y="260" width="60" height="30" as="geometry" />
        </mxCell>
        <mxCell id="MCglpq_lhRXfIu_TLcl6-46" value="&lt;font style=&quot;font-size: 16px;&quot;&gt;1&lt;/font&gt;" style="text;html=1;strokeColor=none;fillColor=none;align=center;verticalAlign=middle;whiteSpace=wrap;rounded=0;" vertex="1" parent="1">
          <mxGeometry x="200" y="605" width="60" height="30" as="geometry" />
        </mxCell>
        <mxCell id="MCglpq_lhRXfIu_TLcl6-48" value="" style="endArrow=none;html=1;rounded=0;entryX=0;entryY=0.5;entryDx=0;entryDy=0;" edge="1" parent="1" target="k9TsYi5H-A5N4quMduwp-4">
          <mxGeometry width="50" height="50" relative="1" as="geometry">
            <mxPoint x="250" y="870" as="sourcePoint" />
            <mxPoint x="600" y="740" as="targetPoint" />
          </mxGeometry>
        </mxCell>
        <mxCell id="MCglpq_lhRXfIu_TLcl6-49" value="" style="endArrow=none;html=1;rounded=0;entryX=0.5;entryY=1;entryDx=0;entryDy=0;" edge="1" parent="1" target="MCglpq_lhRXfIu_TLcl6-19">
          <mxGeometry width="50" height="50" relative="1" as="geometry">
            <mxPoint x="250" y="870" as="sourcePoint" />
            <mxPoint x="600" y="740" as="targetPoint" />
          </mxGeometry>
        </mxCell>
        <mxCell id="MCglpq_lhRXfIu_TLcl6-50" value="&lt;font style=&quot;font-size: 16px;&quot;&gt;1&lt;/font&gt;" style="text;html=1;strokeColor=none;fillColor=none;align=center;verticalAlign=middle;whiteSpace=wrap;rounded=0;" vertex="1" parent="1">
          <mxGeometry x="530" y="842" width="60" height="30" as="geometry" />
        </mxCell>
        <mxCell id="MCglpq_lhRXfIu_TLcl6-51" value="" style="endArrow=none;html=1;rounded=0;exitX=1;exitY=0.5;exitDx=0;exitDy=0;entryX=0;entryY=0.5;entryDx=0;entryDy=0;" edge="1" parent="1" source="k9TsYi5H-A5N4quMduwp-9" target="MCglpq_lhRXfIu_TLcl6-54">
          <mxGeometry width="50" height="50" relative="1" as="geometry">
            <mxPoint x="340" y="550" as="sourcePoint" />
            <mxPoint x="390" y="500" as="targetPoint" />
          </mxGeometry>
        </mxCell>
        <mxCell id="MCglpq_lhRXfIu_TLcl6-54" value="&lt;b&gt;ĐẶT&lt;/b&gt;" style="rhombus;whiteSpace=wrap;html=1;rotation=-45;" vertex="1" parent="1">
          <mxGeometry x="390" y="385" width="140" height="80" as="geometry" />
        </mxCell>
        <mxCell id="MCglpq_lhRXfIu_TLcl6-55" value="" style="endArrow=none;html=1;rounded=0;entryX=0.25;entryY=1;entryDx=0;entryDy=0;exitX=1;exitY=0.5;exitDx=0;exitDy=0;" edge="1" parent="1" source="MCglpq_lhRXfIu_TLcl6-54" target="k9TsYi5H-A5N4quMduwp-2">
          <mxGeometry width="50" height="50" relative="1" as="geometry">
            <mxPoint x="510" y="380" as="sourcePoint" />
            <mxPoint x="560" y="330" as="targetPoint" />
          </mxGeometry>
        </mxCell>
        <mxCell id="MCglpq_lhRXfIu_TLcl6-56" value="&lt;font style=&quot;font-size: 16px;&quot;&gt;1&lt;/font&gt;" style="text;html=1;strokeColor=none;fillColor=none;align=center;verticalAlign=middle;whiteSpace=wrap;rounded=0;" vertex="1" parent="1">
          <mxGeometry x="300" y="515" width="60" height="30" as="geometry" />
        </mxCell>
        <mxCell id="MCglpq_lhRXfIu_TLcl6-57" value="&lt;font style=&quot;font-size: 16px;&quot;&gt;n&lt;/font&gt;" style="text;html=1;strokeColor=none;fillColor=none;align=center;verticalAlign=middle;whiteSpace=wrap;rounded=0;" vertex="1" parent="1">
          <mxGeometry x="550" y="260" width="60" height="30" as="geometry" />
        </mxCell>
      </root>
    </mxGraphModel>
  </diagram>
  <diagram id="e-8MCf9j3gJpW38hzJC2" name="use case diagram">
    <mxGraphModel dx="2907" dy="2235" grid="1" gridSize="10" guides="1" tooltips="1" connect="1" arrows="1" fold="1" page="1" pageScale="1" pageWidth="827" pageHeight="1169" math="0" shadow="0">
      <root>
        <mxCell id="0" />
        <mxCell id="1" parent="0" />
        <mxCell id="oAN-OfmRQ8hTfCljLr7d-1" value="&lt;b&gt;ĐẶT VÉ&lt;/b&gt;" style="ellipse;whiteSpace=wrap;html=1;" vertex="1" parent="1">
          <mxGeometry x="250" y="-5" width="120" height="80" as="geometry" />
        </mxCell>
        <mxCell id="oAN-OfmRQ8hTfCljLr7d-2" value="&lt;b&gt;ĐĂNG NHẬP&lt;/b&gt;" style="ellipse;whiteSpace=wrap;html=1;" vertex="1" parent="1">
          <mxGeometry x="-90" y="85" width="120" height="80" as="geometry" />
        </mxCell>
        <mxCell id="oAN-OfmRQ8hTfCljLr7d-3" value="&lt;b&gt;ĐĂNG KÍ&lt;/b&gt;" style="ellipse;whiteSpace=wrap;html=1;" vertex="1" parent="1">
          <mxGeometry x="250" y="565" width="120" height="80" as="geometry" />
        </mxCell>
        <mxCell id="oAN-OfmRQ8hTfCljLr7d-4" value="&lt;b&gt;THAY ĐỔI THÔNG TIN&lt;/b&gt;" style="ellipse;whiteSpace=wrap;html=1;" vertex="1" parent="1">
          <mxGeometry x="250" y="-107" width="120" height="80" as="geometry" />
        </mxCell>
        <mxCell id="oAN-OfmRQ8hTfCljLr7d-5" value="&lt;b&gt;XEM LỊCH CHIẾU, THÔNG TIN KHUYẾN MÃI&lt;/b&gt;" style="ellipse;whiteSpace=wrap;html=1;" vertex="1" parent="1">
          <mxGeometry x="250" y="-210" width="120" height="80" as="geometry" />
        </mxCell>
        <mxCell id="oAN-OfmRQ8hTfCljLr7d-6" value="&lt;b&gt;CHAT&lt;/b&gt;" style="ellipse;whiteSpace=wrap;html=1;" vertex="1" parent="1">
          <mxGeometry x="250" y="-310" width="120" height="80" as="geometry" />
        </mxCell>
        <mxCell id="oAN-OfmRQ8hTfCljLr7d-7" value="&lt;b&gt;TÍCH ĐIỂM&lt;/b&gt;" style="ellipse;whiteSpace=wrap;html=1;" vertex="1" parent="1">
          <mxGeometry x="240" y="205" width="120" height="80" as="geometry" />
        </mxCell>
        <mxCell id="oAN-OfmRQ8hTfCljLr7d-8" value="&lt;b&gt;QUẢN LÝ ĐƠN MUA&lt;/b&gt;" style="ellipse;whiteSpace=wrap;html=1;" vertex="1" parent="1">
          <mxGeometry x="-450" y="-90" width="120" height="80" as="geometry" />
        </mxCell>
        <mxCell id="oAN-OfmRQ8hTfCljLr7d-9" value="&lt;b&gt;UPDATE THÔNG TIN VỀ PHIM, KHUYẾN MÃI&lt;/b&gt;" style="ellipse;whiteSpace=wrap;html=1;" vertex="1" parent="1">
          <mxGeometry x="-450" y="-210" width="120" height="80" as="geometry" />
        </mxCell>
        <mxCell id="oAN-OfmRQ8hTfCljLr7d-10" value="&lt;b&gt;CHAT&lt;/b&gt;" style="ellipse;whiteSpace=wrap;html=1;" vertex="1" parent="1">
          <mxGeometry x="-450" y="260" width="120" height="80" as="geometry" />
        </mxCell>
        <mxCell id="oAN-OfmRQ8hTfCljLr7d-11" value="&lt;font style=&quot;font-size: 17px;&quot;&gt;Khách hàng&lt;/font&gt;" style="shape=umlActor;verticalLabelPosition=bottom;verticalAlign=top;html=1;outlineConnect=0;" vertex="1" parent="1">
          <mxGeometry x="530" y="90" width="40" height="70" as="geometry" />
        </mxCell>
        <mxCell id="oAN-OfmRQ8hTfCljLr7d-12" value="&lt;span style=&quot;font-size: 17px;&quot;&gt;Người quản trị&lt;/span&gt;" style="shape=umlActor;verticalLabelPosition=bottom;verticalAlign=top;html=1;outlineConnect=0;" vertex="1" parent="1">
          <mxGeometry x="-600" y="75" width="40" height="70" as="geometry" />
        </mxCell>
        <mxCell id="oAN-OfmRQ8hTfCljLr7d-13" value="&lt;b&gt;SỬA THÔNG TIN TÀI KHOẢN&lt;/b&gt;" style="ellipse;whiteSpace=wrap;html=1;" vertex="1" parent="1">
          <mxGeometry x="250" y="325" width="120" height="80" as="geometry" />
        </mxCell>
        <mxCell id="oAN-OfmRQ8hTfCljLr7d-14" value="&lt;b&gt;QUÊN MẬT KHẨU&lt;/b&gt;" style="ellipse;whiteSpace=wrap;html=1;" vertex="1" parent="1">
          <mxGeometry x="-90" y="310" width="120" height="80" as="geometry" />
        </mxCell>
        <mxCell id="oAN-OfmRQ8hTfCljLr7d-15" value="" style="endArrow=none;html=1;rounded=0;exitX=1;exitY=0.5;exitDx=0;exitDy=0;entryX=0.25;entryY=0.1;entryDx=0;entryDy=0;entryPerimeter=0;" edge="1" parent="1" source="oAN-OfmRQ8hTfCljLr7d-5" target="oAN-OfmRQ8hTfCljLr7d-11">
          <mxGeometry width="50" height="50" relative="1" as="geometry">
            <mxPoint x="390" y="-90" as="sourcePoint" />
            <mxPoint x="520" y="80" as="targetPoint" />
          </mxGeometry>
        </mxCell>
        <mxCell id="oAN-OfmRQ8hTfCljLr7d-16" value="" style="endArrow=classic;html=1;rounded=0;dashed=1;entryX=0.75;entryY=0;entryDx=0;entryDy=0;entryPerimeter=0;exitX=0;exitY=0.5;exitDx=0;exitDy=0;" edge="1" parent="1" source="oAN-OfmRQ8hTfCljLr7d-4" target="oAN-OfmRQ8hTfCljLr7d-2">
          <mxGeometry width="50" height="50" relative="1" as="geometry">
            <mxPoint x="240" y="10" as="sourcePoint" />
            <mxPoint x="160" y="130" as="targetPoint" />
          </mxGeometry>
        </mxCell>
        <mxCell id="oAN-OfmRQ8hTfCljLr7d-17" value="" style="endArrow=classic;html=1;rounded=0;dashed=1;entryX=0.975;entryY=0.403;entryDx=0;entryDy=0;entryPerimeter=0;exitX=0;exitY=0.5;exitDx=0;exitDy=0;" edge="1" parent="1" source="oAN-OfmRQ8hTfCljLr7d-1" target="oAN-OfmRQ8hTfCljLr7d-2">
          <mxGeometry width="50" height="50" relative="1" as="geometry">
            <mxPoint x="160" y="130" as="sourcePoint" />
            <mxPoint x="-165" y="227" as="targetPoint" />
          </mxGeometry>
        </mxCell>
        <mxCell id="oAN-OfmRQ8hTfCljLr7d-18" value="" style="endArrow=classic;html=1;rounded=0;dashed=1;entryX=0.5;entryY=1;entryDx=0;entryDy=0;exitX=0.5;exitY=0;exitDx=0;exitDy=0;" edge="1" parent="1" source="oAN-OfmRQ8hTfCljLr7d-14" target="oAN-OfmRQ8hTfCljLr7d-2">
          <mxGeometry width="50" height="50" relative="1" as="geometry">
            <mxPoint x="-40" y="145" as="sourcePoint" />
            <mxPoint x="-40" y="235" as="targetPoint" />
          </mxGeometry>
        </mxCell>
        <mxCell id="oAN-OfmRQ8hTfCljLr7d-19" value="" style="endArrow=classic;html=1;rounded=0;dashed=1;entryX=1;entryY=1;entryDx=0;entryDy=0;exitX=0.058;exitY=0.196;exitDx=0;exitDy=0;exitPerimeter=0;" edge="1" parent="1" source="oAN-OfmRQ8hTfCljLr7d-13" target="oAN-OfmRQ8hTfCljLr7d-2">
          <mxGeometry width="50" height="50" relative="1" as="geometry">
            <mxPoint x="260" y="151" as="sourcePoint" />
            <mxPoint x="130" y="248" as="targetPoint" />
          </mxGeometry>
        </mxCell>
        <mxCell id="oAN-OfmRQ8hTfCljLr7d-20" value="" style="endArrow=none;html=1;rounded=0;exitX=0.983;exitY=0.632;exitDx=0;exitDy=0;entryX=0;entryY=0.3333333333333333;entryDx=0;entryDy=0;entryPerimeter=0;exitPerimeter=0;" edge="1" parent="1" source="oAN-OfmRQ8hTfCljLr7d-4" target="oAN-OfmRQ8hTfCljLr7d-11">
          <mxGeometry width="50" height="50" relative="1" as="geometry">
            <mxPoint x="360" y="145" as="sourcePoint" />
            <mxPoint x="530" y="342" as="targetPoint" />
          </mxGeometry>
        </mxCell>
        <mxCell id="oAN-OfmRQ8hTfCljLr7d-21" value="" style="endArrow=none;html=1;rounded=0;exitX=1;exitY=0.5;exitDx=0;exitDy=0;" edge="1" parent="1" source="oAN-OfmRQ8hTfCljLr7d-6">
          <mxGeometry width="50" height="50" relative="1" as="geometry">
            <mxPoint x="368" y="110.44" as="sourcePoint" />
            <mxPoint x="550" y="80" as="targetPoint" />
          </mxGeometry>
        </mxCell>
        <mxCell id="oAN-OfmRQ8hTfCljLr7d-22" value="" style="endArrow=none;html=1;rounded=0;exitX=1;exitY=0.5;exitDx=0;exitDy=0;" edge="1" parent="1" source="oAN-OfmRQ8hTfCljLr7d-3">
          <mxGeometry width="50" height="50" relative="1" as="geometry">
            <mxPoint x="390" y="210" as="sourcePoint" />
            <mxPoint x="550" y="190" as="targetPoint" />
          </mxGeometry>
        </mxCell>
        <mxCell id="oAN-OfmRQ8hTfCljLr7d-23" value="" style="endArrow=none;html=1;rounded=0;exitX=1;exitY=0;exitDx=0;exitDy=0;" edge="1" parent="1" source="oAN-OfmRQ8hTfCljLr7d-13" target="oAN-OfmRQ8hTfCljLr7d-11">
          <mxGeometry width="50" height="50" relative="1" as="geometry">
            <mxPoint x="380" y="300" as="sourcePoint" />
            <mxPoint x="540" y="226" as="targetPoint" />
          </mxGeometry>
        </mxCell>
        <mxCell id="oAN-OfmRQ8hTfCljLr7d-24" value="" style="endArrow=none;html=1;rounded=0;exitX=1;exitY=0.5;exitDx=0;exitDy=0;" edge="1" parent="1" source="oAN-OfmRQ8hTfCljLr7d-7" target="oAN-OfmRQ8hTfCljLr7d-11">
          <mxGeometry width="50" height="50" relative="1" as="geometry">
            <mxPoint x="370" y="200" as="sourcePoint" />
            <mxPoint x="550" y="220" as="targetPoint" />
          </mxGeometry>
        </mxCell>
        <mxCell id="oAN-OfmRQ8hTfCljLr7d-25" value="&amp;lt;&amp;lt;include&amp;gt;&amp;gt;" style="text;html=1;strokeColor=none;fillColor=none;align=center;verticalAlign=middle;whiteSpace=wrap;rounded=0;rotation=339;" vertex="1" parent="1">
          <mxGeometry x="94" y="55" width="60" height="30" as="geometry" />
        </mxCell>
        <mxCell id="oAN-OfmRQ8hTfCljLr7d-26" value="&amp;lt;&amp;lt;extend&amp;gt;&amp;gt;" style="text;html=1;strokeColor=none;fillColor=none;align=center;verticalAlign=middle;whiteSpace=wrap;rounded=0;rotation=-90;" vertex="1" parent="1">
          <mxGeometry x="-76" y="230" width="60" height="30" as="geometry" />
        </mxCell>
        <mxCell id="oAN-OfmRQ8hTfCljLr7d-27" value="&amp;lt;&amp;lt;include&amp;gt;&amp;gt;" style="text;html=1;strokeColor=none;fillColor=none;align=center;verticalAlign=middle;whiteSpace=wrap;rounded=0;rotation=329;" vertex="1" parent="1">
          <mxGeometry x="60" y="-5" width="60" height="30" as="geometry" />
        </mxCell>
        <mxCell id="oAN-OfmRQ8hTfCljLr7d-28" value="&amp;lt;&amp;lt;include&amp;gt;&amp;gt;" style="text;html=1;strokeColor=none;fillColor=none;align=center;verticalAlign=middle;whiteSpace=wrap;rounded=0;rotation=34;" vertex="1" parent="1">
          <mxGeometry x="120" y="240" width="60" height="30" as="geometry" />
        </mxCell>
        <mxCell id="oAN-OfmRQ8hTfCljLr7d-29" value="" style="endArrow=classic;html=1;rounded=0;entryX=1.02;entryY=0.584;entryDx=0;entryDy=0;entryPerimeter=0;exitX=0.011;exitY=0.294;exitDx=0;exitDy=0;exitPerimeter=0;dashed=1;" edge="1" parent="1" source="oAN-OfmRQ8hTfCljLr7d-7" target="oAN-OfmRQ8hTfCljLr7d-2">
          <mxGeometry width="50" height="50" relative="1" as="geometry">
            <mxPoint x="200" y="180" as="sourcePoint" />
            <mxPoint x="250" y="130" as="targetPoint" />
          </mxGeometry>
        </mxCell>
        <mxCell id="oAN-OfmRQ8hTfCljLr7d-30" value="&amp;lt;&amp;lt;include&amp;gt;&amp;gt;" style="text;html=1;strokeColor=none;fillColor=none;align=center;verticalAlign=middle;whiteSpace=wrap;rounded=0;rotation=25;" vertex="1" parent="1">
          <mxGeometry x="130" y="160" width="60" height="30" as="geometry" />
        </mxCell>
        <mxCell id="oAN-OfmRQ8hTfCljLr7d-31" value="" style="endArrow=none;html=1;rounded=0;exitX=1;exitY=0.5;exitDx=0;exitDy=0;" edge="1" parent="1" source="oAN-OfmRQ8hTfCljLr7d-1" target="oAN-OfmRQ8hTfCljLr7d-11">
          <mxGeometry width="50" height="50" relative="1" as="geometry">
            <mxPoint x="340" y="160" as="sourcePoint" />
            <mxPoint x="390" y="110" as="targetPoint" />
          </mxGeometry>
        </mxCell>
        <mxCell id="oAN-OfmRQ8hTfCljLr7d-32" value="&lt;b&gt;THANH TOÁN&lt;/b&gt;" style="ellipse;whiteSpace=wrap;html=1;" vertex="1" parent="1">
          <mxGeometry x="250" y="435" width="120" height="80" as="geometry" />
        </mxCell>
        <mxCell id="oAN-OfmRQ8hTfCljLr7d-33" value="" style="endArrow=none;html=1;rounded=0;exitX=1;exitY=0;exitDx=0;exitDy=0;" edge="1" parent="1" source="oAN-OfmRQ8hTfCljLr7d-32" target="oAN-OfmRQ8hTfCljLr7d-11">
          <mxGeometry width="50" height="50" relative="1" as="geometry">
            <mxPoint x="40" y="320" as="sourcePoint" />
            <mxPoint x="490" y="240" as="targetPoint" />
          </mxGeometry>
        </mxCell>
        <mxCell id="oAN-OfmRQ8hTfCljLr7d-34" value="" style="endArrow=classic;html=1;rounded=0;entryX=0.64;entryY=0.991;entryDx=0;entryDy=0;entryPerimeter=0;exitX=0;exitY=0.5;exitDx=0;exitDy=0;dashed=1;" edge="1" parent="1" source="oAN-OfmRQ8hTfCljLr7d-32" target="oAN-OfmRQ8hTfCljLr7d-2">
          <mxGeometry width="50" height="50" relative="1" as="geometry">
            <mxPoint x="40" y="320" as="sourcePoint" />
            <mxPoint x="90" y="270" as="targetPoint" />
          </mxGeometry>
        </mxCell>
        <mxCell id="oAN-OfmRQ8hTfCljLr7d-35" value="&amp;lt;&amp;lt;include&amp;gt;&amp;gt;" style="text;html=1;strokeColor=none;fillColor=none;align=center;verticalAlign=middle;whiteSpace=wrap;rounded=0;rotation=48;" vertex="1" parent="1">
          <mxGeometry x="94" y="295" width="60" height="30" as="geometry" />
        </mxCell>
        <mxCell id="oAN-OfmRQ8hTfCljLr7d-36" value="" style="endArrow=none;html=1;rounded=0;exitX=1;exitY=0.5;exitDx=0;exitDy=0;" edge="1" parent="1" source="oAN-OfmRQ8hTfCljLr7d-2" target="oAN-OfmRQ8hTfCljLr7d-11">
          <mxGeometry width="50" height="50" relative="1" as="geometry">
            <mxPoint x="60" y="-30" as="sourcePoint" />
            <mxPoint x="110" y="-80" as="targetPoint" />
          </mxGeometry>
        </mxCell>
        <mxCell id="oAN-OfmRQ8hTfCljLr7d-37" value="" style="endArrow=none;html=1;rounded=0;entryX=0;entryY=0.5;entryDx=0;entryDy=0;" edge="1" parent="1" source="oAN-OfmRQ8hTfCljLr7d-12" target="oAN-OfmRQ8hTfCljLr7d-2">
          <mxGeometry width="50" height="50" relative="1" as="geometry">
            <mxPoint x="-170" y="70" as="sourcePoint" />
            <mxPoint x="-120" y="20" as="targetPoint" />
          </mxGeometry>
        </mxCell>
        <mxCell id="oAN-OfmRQ8hTfCljLr7d-38" value="" style="endArrow=none;html=1;rounded=0;entryX=0;entryY=0.5;entryDx=0;entryDy=0;exitX=0.75;exitY=0.1;exitDx=0;exitDy=0;exitPerimeter=0;" edge="1" parent="1" source="oAN-OfmRQ8hTfCljLr7d-12" target="oAN-OfmRQ8hTfCljLr7d-8">
          <mxGeometry width="50" height="50" relative="1" as="geometry">
            <mxPoint x="-170" y="70" as="sourcePoint" />
            <mxPoint x="-120" y="20" as="targetPoint" />
          </mxGeometry>
        </mxCell>
        <mxCell id="oAN-OfmRQ8hTfCljLr7d-39" value="" style="endArrow=none;html=1;rounded=0;entryX=0;entryY=0.5;entryDx=0;entryDy=0;exitX=0.5;exitY=0;exitDx=0;exitDy=0;exitPerimeter=0;" edge="1" parent="1" source="oAN-OfmRQ8hTfCljLr7d-12" target="oAN-OfmRQ8hTfCljLr7d-9">
          <mxGeometry width="50" height="50" relative="1" as="geometry">
            <mxPoint x="-170" y="70" as="sourcePoint" />
            <mxPoint x="-230" y="-10" as="targetPoint" />
          </mxGeometry>
        </mxCell>
        <mxCell id="oAN-OfmRQ8hTfCljLr7d-40" value="" style="endArrow=none;html=1;rounded=0;entryX=0;entryY=0.5;entryDx=0;entryDy=0;" edge="1" parent="1" source="oAN-OfmRQ8hTfCljLr7d-12" target="oAN-OfmRQ8hTfCljLr7d-10">
          <mxGeometry width="50" height="50" relative="1" as="geometry">
            <mxPoint x="-170" y="70" as="sourcePoint" />
            <mxPoint x="-120" y="20" as="targetPoint" />
          </mxGeometry>
        </mxCell>
        <mxCell id="oAN-OfmRQ8hTfCljLr7d-41" value="" style="endArrow=classic;html=1;rounded=0;dashed=1;exitX=0.994;exitY=0.663;exitDx=0;exitDy=0;exitPerimeter=0;entryX=0.25;entryY=0.063;entryDx=0;entryDy=0;entryPerimeter=0;" edge="1" parent="1" source="oAN-OfmRQ8hTfCljLr7d-9" target="oAN-OfmRQ8hTfCljLr7d-2">
          <mxGeometry width="50" height="50" relative="1" as="geometry">
            <mxPoint x="-170" y="70" as="sourcePoint" />
            <mxPoint x="-120" y="20" as="targetPoint" />
          </mxGeometry>
        </mxCell>
        <mxCell id="oAN-OfmRQ8hTfCljLr7d-42" value="" style="endArrow=classic;html=1;rounded=0;exitX=0.972;exitY=0.779;exitDx=0;exitDy=0;exitPerimeter=0;entryX=0.061;entryY=0.208;entryDx=0;entryDy=0;entryPerimeter=0;dashed=1;" edge="1" parent="1" source="oAN-OfmRQ8hTfCljLr7d-8" target="oAN-OfmRQ8hTfCljLr7d-2">
          <mxGeometry width="50" height="50" relative="1" as="geometry">
            <mxPoint x="-170" y="70" as="sourcePoint" />
            <mxPoint x="-120" y="20" as="targetPoint" />
          </mxGeometry>
        </mxCell>
        <mxCell id="oAN-OfmRQ8hTfCljLr7d-43" value="" style="endArrow=classic;html=1;rounded=0;exitX=1;exitY=0.5;exitDx=0;exitDy=0;entryX=0;entryY=1;entryDx=0;entryDy=0;dashed=1;" edge="1" parent="1" source="oAN-OfmRQ8hTfCljLr7d-10" target="oAN-OfmRQ8hTfCljLr7d-2">
          <mxGeometry width="50" height="50" relative="1" as="geometry">
            <mxPoint x="-170" y="70" as="sourcePoint" />
            <mxPoint x="-120" y="20" as="targetPoint" />
          </mxGeometry>
        </mxCell>
        <mxCell id="oAN-OfmRQ8hTfCljLr7d-44" value="&amp;lt;&amp;lt;include&amp;gt;&amp;gt;" style="text;html=1;strokeColor=none;fillColor=none;align=center;verticalAlign=middle;whiteSpace=wrap;rounded=0;rotation=41;" vertex="1" parent="1">
          <mxGeometry x="-200" y="-40" width="60" height="30" as="geometry" />
        </mxCell>
        <mxCell id="oAN-OfmRQ8hTfCljLr7d-45" value="&amp;lt;&amp;lt;include&amp;gt;&amp;gt;" style="text;html=1;strokeColor=none;fillColor=none;align=center;verticalAlign=middle;whiteSpace=wrap;rounded=0;rotation=29;" vertex="1" parent="1">
          <mxGeometry x="-250" width="60" height="30" as="geometry" />
        </mxCell>
        <mxCell id="oAN-OfmRQ8hTfCljLr7d-46" value="&amp;lt;&amp;lt;include&amp;gt;&amp;gt;" style="text;html=1;strokeColor=none;fillColor=none;align=center;verticalAlign=middle;whiteSpace=wrap;rounded=0;rotation=-30;" vertex="1" parent="1">
          <mxGeometry x="-260" y="210" width="60" height="30" as="geometry" />
        </mxCell>
        <mxCell id="oAN-OfmRQ8hTfCljLr7d-47" value="" style="curved=1;endArrow=none;html=1;rounded=0;entryX=0.5;entryY=1;entryDx=0;entryDy=0;endFill=0;" edge="1" parent="1" target="oAN-OfmRQ8hTfCljLr7d-14">
          <mxGeometry width="50" height="50" relative="1" as="geometry">
            <mxPoint x="580" y="190" as="sourcePoint" />
            <mxPoint x="240" y="660" as="targetPoint" />
            <Array as="points">
              <mxPoint x="610" y="680" />
              <mxPoint x="100" y="690" />
            </Array>
          </mxGeometry>
        </mxCell>
        <mxCell id="oAN-OfmRQ8hTfCljLr7d-48" value="" style="curved=1;endArrow=none;html=1;rounded=0;entryX=0;entryY=1;entryDx=0;entryDy=0;endFill=0;" edge="1" parent="1" source="oAN-OfmRQ8hTfCljLr7d-12" target="oAN-OfmRQ8hTfCljLr7d-14">
          <mxGeometry width="50" height="50" relative="1" as="geometry">
            <mxPoint x="-610" y="150" as="sourcePoint" />
            <mxPoint x="-220" y="530" as="targetPoint" />
            <Array as="points">
              <mxPoint x="-620" y="440" />
              <mxPoint x="-330" y="570" />
            </Array>
          </mxGeometry>
        </mxCell>
        <mxCell id="oAN-OfmRQ8hTfCljLr7d-49" value="&lt;b&gt;QUẢN LÍ LỊCH CHIẾU&lt;/b&gt;" style="ellipse;whiteSpace=wrap;html=1;" vertex="1" parent="1">
          <mxGeometry x="-450" y="145" width="120" height="80" as="geometry" />
        </mxCell>
        <mxCell id="oAN-OfmRQ8hTfCljLr7d-50" value="" style="endArrow=none;html=1;rounded=0;entryX=0.002;entryY=0.437;entryDx=0;entryDy=0;entryPerimeter=0;" edge="1" parent="1" source="oAN-OfmRQ8hTfCljLr7d-12" target="oAN-OfmRQ8hTfCljLr7d-49">
          <mxGeometry width="50" height="50" relative="1" as="geometry">
            <mxPoint x="-500" y="180" as="sourcePoint" />
            <mxPoint x="-450" y="130" as="targetPoint" />
          </mxGeometry>
        </mxCell>
        <mxCell id="oAN-OfmRQ8hTfCljLr7d-51" value="" style="endArrow=classic;html=1;rounded=0;entryX=0.005;entryY=0.711;entryDx=0;entryDy=0;entryPerimeter=0;exitX=1;exitY=0.5;exitDx=0;exitDy=0;dashed=1;" edge="1" parent="1" source="oAN-OfmRQ8hTfCljLr7d-49" target="oAN-OfmRQ8hTfCljLr7d-2">
          <mxGeometry width="50" height="50" relative="1" as="geometry">
            <mxPoint x="-310" y="140" as="sourcePoint" />
            <mxPoint x="-260" y="90" as="targetPoint" />
          </mxGeometry>
        </mxCell>
        <mxCell id="oAN-OfmRQ8hTfCljLr7d-52" value="&lt;b&gt;GỬI THÔNG TIN CHO KHÁCH HÀNG&lt;/b&gt;" style="ellipse;whiteSpace=wrap;html=1;" vertex="1" parent="1">
          <mxGeometry x="-450" y="390" width="120" height="80" as="geometry" />
        </mxCell>
        <mxCell id="oAN-OfmRQ8hTfCljLr7d-53" value="" style="endArrow=none;html=1;rounded=0;exitX=0.03;exitY=0.312;exitDx=0;exitDy=0;exitPerimeter=0;" edge="1" parent="1" source="oAN-OfmRQ8hTfCljLr7d-52" target="oAN-OfmRQ8hTfCljLr7d-12">
          <mxGeometry width="50" height="50" relative="1" as="geometry">
            <mxPoint x="-120" y="250" as="sourcePoint" />
            <mxPoint x="-550" y="230" as="targetPoint" />
          </mxGeometry>
        </mxCell>
        <mxCell id="oAN-OfmRQ8hTfCljLr7d-54" value="&amp;lt;&amp;lt;include&amp;gt;&amp;gt;" style="text;html=1;strokeColor=none;fillColor=none;align=center;verticalAlign=middle;whiteSpace=wrap;rounded=0;rotation=350;" vertex="1" parent="1">
          <mxGeometry x="-290" y="145" width="60" height="30" as="geometry" />
        </mxCell>
        <mxCell id="oAN-OfmRQ8hTfCljLr7d-55" value="" style="endArrow=classic;html=1;rounded=0;entryX=0.325;entryY=0.974;entryDx=0;entryDy=0;entryPerimeter=0;exitX=0.943;exitY=0.251;exitDx=0;exitDy=0;exitPerimeter=0;dashed=1;" edge="1" parent="1" source="oAN-OfmRQ8hTfCljLr7d-52" target="oAN-OfmRQ8hTfCljLr7d-2">
          <mxGeometry width="50" height="50" relative="1" as="geometry">
            <mxPoint x="-320" y="350" as="sourcePoint" />
            <mxPoint x="-280" y="250" as="targetPoint" />
          </mxGeometry>
        </mxCell>
        <mxCell id="oAN-OfmRQ8hTfCljLr7d-56" value="&amp;lt;&amp;lt;include&amp;gt;&amp;gt;" style="text;html=1;strokeColor=none;fillColor=none;align=center;verticalAlign=middle;whiteSpace=wrap;rounded=0;rotation=-40;" vertex="1" parent="1">
          <mxGeometry x="-240" y="270" width="60" height="30" as="geometry" />
        </mxCell>
      </root>
    </mxGraphModel>
  </diagram>
</mxfile>
